<svg width="164" height="40" xmlns="http://www.w3.org/2000/svg"><g fill="none" fill-rule="evenodd"><g stroke="#979797" stroke-linecap="round" stroke-width="2"><path d="M8 13l-7 7M8 27l-7-7"/><g><path d="M56 13l7 7M56 27l7-7"/></g></g><g transform="translate(16 4)"><circle stroke="#307594" class="logo-stroke" stroke-width="2" cx="16" cy="16" r="15"/><rect fill="#307594" class="logo-fill" x="9" y="10" width="3" height="5" rx="1.5"/><rect fill="#307594" x="20" y="10" width="3" height="5" rx="1.5"/><path d="M16 26c5 0 9.545-4.505 9.024-5.5C24.5 19.5 22 23 16 23c-6 0-8-3.5-8.5-2.5S11 26 16 26z" fill="#307594" class="logo-fill"/></g><g transform="translate(76 1)"><rect fill="#E13E31" width="3" height="3" rx="1.5"/><path d="M1.5 6.5v12M18.596 7.404a6.5 6.5 0 1 0 0 9.192" stroke="#E13E31" stroke-width="3" stroke-linecap="round"/><circle stroke="#E13E31" stroke-width="3" cx="30" cy="12" r="6.5"/><path d="M53.5 18.5V11a5.5 5.5 0 0 0-11 0v7.5" stroke="#E13E31" stroke-width="3" stroke-linecap="round"/><g transform="translate(58)"><rect fill="#AEAEAE" width="3" height="3" rx="1.5"/><path d="M1.5 6.5v12" stroke="#AEAEAE" stroke-width="3" stroke-linecap="round"/></g><g stroke="#AEAEAE" stroke-linecap="round" stroke-width="3"><path d="M73.5 1.5H70c-2.5 0-4.5 2-4.5 4.5v12.5M69 10.5h2.5"/></g><g stroke="#AEAEAE" stroke-linecap="round" stroke-width="3"><path d="M78.5 21.5h4c2 0 4-2 4-4v-12"/><path d="M77.5 5.5v5c0 2.5 1.5 4 4 4H83"/></g></g><g transform="translate(73 24)"><circle fill="#307594" class="logo-fill" cx="1" cy="13" r="1"/><path d="M7 13A5 5 0 0 0 7 3H4v10h3z" stroke="#307594" class="logo-stroke" stroke-width="2" stroke-linejoin="round"/><g stroke="#307594" class="logo-stroke" stroke-linecap="round" stroke-width="2"><path d="M22 13h-4c-1 0-2-1-2-2V5c0-1 1-2 2-2h4M18 8h3"/></g><g stroke="#307594" class="logo-stroke" stroke-linecap="round" stroke-width="2"><path d="M31 5.5A2.5 2.5 0 1 0 28.5 8M26 10.5A2.5 2.5 0 1 0 28.5 8"/></g><g transform="translate(34 2)"><path d="M1 11V4" stroke="#307594" class="logo-stroke" stroke-width="2" stroke-linecap="round"/><circle fill="#307594" class="logo-fill" cx="1" cy="1" r="1"/></g><path d="M48 5c-.152-.18-.29-.362-.464-.536a5 5 0 1 0 .463 6.538V9H47M52 13V3l7 10V3" stroke="#307594" class="logo-stroke" stroke-width="2" stroke-linecap="round" stroke-linejoin="round"/></g></g></svg>